<svg width="27" height="27" viewBox="0 0 27 27" fill="none" xmlns="http://www.w3.org/2000/svg">
<path d="M26.5983 15.0653C26.3859 17.5352 25.4724 19.8931 23.9654 21.8616C22.4584 23.83 20.4205 25.3271 18.0915 26.1767C15.7626 27.0263 13.2394 27.1931 10.8189 26.6574C8.39837 26.1217 6.1812 24.9059 4.42822 23.1529C2.67524 21.3999 1.45938 19.1827 0.923693 16.7622C0.388004 14.3417 0.55477 11.8185 1.40437 9.48956C2.25397 7.1606 3.75106 5.12273 5.71951 3.61571C7.68795 2.1087 10.0459 1.19522 12.5158 0.982768C12.6472 0.971933 12.7793 0.987071 12.9048 1.02732C13.0303 1.06756 13.1466 1.13213 13.2471 1.21732C13.3476 1.30252 13.4304 1.40668 13.4906 1.52386C13.5509 1.64104 13.5875 1.76895 13.5983 1.90027C13.6092 2.03159 13.594 2.16376 13.5538 2.28923C13.5135 2.4147 13.449 2.53102 13.3638 2.63154C13.2786 2.73206 13.1744 2.81481 13.0572 2.87508C12.9401 2.93534 12.8122 2.97193 12.6808 2.98277C10.5903 3.16238 8.59459 3.93535 6.92847 5.21072C5.26235 6.48609 3.99516 8.2108 3.27599 10.1819C2.55682 12.153 2.4156 14.2886 2.86894 16.3372C3.32228 18.3859 4.35132 20.2624 5.83498 21.7461C7.31865 23.2298 9.19521 24.2588 11.2439 24.7122C13.2925 25.1655 15.4281 25.0243 17.3992 24.3051C19.3703 23.5859 21.095 22.3188 22.3704 20.6526C23.6457 18.9865 24.4187 16.9908 24.5983 14.9003C24.6202 14.635 24.7466 14.3894 24.9496 14.2173C25.1526 14.0453 25.4156 13.9609 25.6808 13.9828C25.946 14.0046 26.1917 14.131 26.3638 14.334C26.5358 14.537 26.6202 14.8001 26.5983 15.0653ZM12.5983 6.98277V13.9828C12.5983 14.248 12.7037 14.5023 12.8912 14.6899C13.0788 14.8774 13.3331 14.9828 13.5983 14.9828H20.5983C20.8635 14.9828 21.1179 14.8774 21.3054 14.6899C21.493 14.5023 21.5983 14.248 21.5983 13.9828C21.5983 13.7176 21.493 13.4632 21.3054 13.2757C21.1179 13.0881 20.8635 12.9828 20.5983 12.9828H14.5983V6.98277C14.5983 6.71755 14.493 6.4632 14.3054 6.27566C14.1179 6.08812 13.8635 5.98277 13.5983 5.98277C13.3331 5.98277 13.0788 6.08812 12.8912 6.27566C12.7037 6.4632 12.5983 6.71755 12.5983 6.98277ZM17.5983 3.98277C17.895 3.98277 18.185 3.89479 18.4317 3.72997C18.6784 3.56515 18.8706 3.33088 18.9841 3.05679C19.0977 2.7827 19.1274 2.4811 19.0695 2.19013C19.0116 1.89916 18.8688 1.63189 18.659 1.42211C18.4492 1.21233 18.1819 1.06947 17.891 1.01159C17.6 0.953712 17.2984 0.983417 17.0243 1.09695C16.7502 1.21048 16.516 1.40274 16.3511 1.64941C16.1863 1.89609 16.0983 2.1861 16.0983 2.48277C16.0983 2.88059 16.2564 3.26212 16.5377 3.54343C16.819 3.82473 17.2005 3.98277 17.5983 3.98277ZM22.0983 6.98277C22.395 6.98277 22.685 6.89479 22.9317 6.72997C23.1784 6.56515 23.3706 6.33088 23.4841 6.05679C23.5977 5.7827 23.6274 5.4811 23.5695 5.19013C23.5116 4.89916 23.3688 4.63189 23.159 4.42211C22.9492 4.21233 22.6819 4.06947 22.391 4.01159C22.1 3.95371 21.7984 3.98342 21.5243 4.09695C21.2502 4.21048 21.0159 4.40274 20.8511 4.64941C20.6863 4.89609 20.5983 5.1861 20.5983 5.48277C20.5983 5.88059 20.7564 6.26212 21.0377 6.54343C21.319 6.82473 21.7005 6.98277 22.0983 6.98277ZM25.0983 11.4828C25.395 11.4828 25.685 11.3948 25.9317 11.23C26.1784 11.0651 26.3706 10.8309 26.4841 10.5568C26.5977 10.2827 26.6274 9.9811 26.5695 9.69013C26.5116 9.39916 26.3688 9.13189 26.159 8.92211C25.9492 8.71233 25.6819 8.56947 25.391 8.51159C25.1 8.45371 24.7984 8.48342 24.5243 8.59695C24.2502 8.71048 24.0159 8.90274 23.8511 9.14941C23.6863 9.39609 23.5983 9.6861 23.5983 9.98277C23.5983 10.3806 23.7564 10.7621 24.0377 11.0434C24.319 11.3247 24.7005 11.4828 25.0983 11.4828Z" fill="#79BFEA"/>
</svg>
