<svg width="23" height="29" viewBox="0 0 23 29" fill="none" xmlns="http://www.w3.org/2000/svg">
<path d="M19.2964 10C18.7773 9.99927 18.2647 10.115 17.7964 10.3388V4.00001C17.7959 2.13632 16.2439 0.538378 14.3649 0.501573C12.5035 0.501573 11.7964 2.00001 11.7964 2.00001C11.0731 1.16271 9.97224 1.01054 9.29639 1.00962C7.41435 1.00708 5.79777 2.60009 5.79639 4.5V5.33875C5.32803 5.11503 4.81543 4.99927 4.29639 5C2.39005 5 0.796387 6.59367 0.796387 8.5V18C0.796387 20.9174 1.95531 23.7153 4.01821 25.7782C6.08111 27.8411 8.87901 29 11.7964 29C14.7138 29 17.5117 27.8411 19.5746 25.7782C21.6375 23.7153 22.7964 20.9174 22.7964 18V13.5C22.7964 11.5937 21.2027 10 19.2964 10ZM20.7964 18C20.7964 20.387 19.8482 22.6761 18.1603 24.364C16.4725 26.0518 14.1833 27 11.7964 27C9.40944 27 7.12025 26.0518 5.43243 24.364C3.7446 22.6761 2.79639 20.387 2.79639 18V8.5C2.79639 7.683 3.47939 7 4.29639 7C5.11339 7 5.79639 7.683 5.79639 8.5V13C5.79639 13.5447 6.25172 14 6.79639 14C7.34105 14 7.79639 13.5447 7.79639 13V4.5C7.79639 3.683 8.47939 3 9.29639 3C10.1134 3 10.7964 3.683 10.7964 4.5V12C10.7964 12.5447 11.2517 13 11.7964 13C12.3411 13 12.7964 12.5447 12.7964 12V4.00001C12.7964 3.18301 13.4794 2.50001 14.2964 2.50001C15.1134 2.50001 15.7964 3.18301 15.7964 4.00001V14C15.7964 14.5447 16.2517 15 16.7964 15C17.3411 15 17.7964 14.5447 17.7964 14V13.5C17.7964 12.683 18.4794 12 19.2964 12C20.1134 12 20.7964 12.683 20.7964 13.5V18ZM13.2964 20C13.2964 20.8154 12.6135 21.4909 11.7964 21.4984C10.9913 21.5057 10.2907 20.8 10.298 20C10.3055 19.1829 10.9809 18.5 11.7964 18.5C12.6134 18.5 13.2964 19.183 13.2964 20ZM11.7964 15C7.23139 15 4.99514 19.3675 4.90139 19.5525C4.76235 19.8304 4.76235 20.1696 4.90139 20.4475C4.99514 20.6325 7.23139 25 11.7964 25C16.3614 25 18.5976 20.6325 18.6914 20.4475C18.8304 20.1696 18.8304 19.8304 18.6914 19.5525C18.5976 19.3675 16.3614 15 11.7964 15ZM11.7964 23C9.21764 23 7.57139 20.935 6.95889 20C7.57139 19.065 9.21764 17 11.7964 17C14.3751 17 16.0226 19.0663 16.6339 20C16.0214 20.935 14.3751 23 11.7964 23Z" fill="#55D6A7"/>
</svg>
