<svg width="22" height="21" viewBox="0 0 22 21"  xmlns="http://www.w3.org/2000/svg">
<path fill-rule="evenodd" clip-rule="evenodd" d="M11.3001 5.10751C8.32249 5.10751 5.91186 7.52072 5.91186 10.4957C5.91186 13.4732 8.32511 15.8838 11.3001 15.8838C14.2777 15.8838 16.6884 13.4706 16.6884 10.4957C16.6884 7.51809 14.2751 5.10751 11.3001 5.10751ZM11.3001 13.993C9.36724 13.993 7.80274 12.4276 7.80274 10.4957C7.80274 8.5637 9.36811 6.99835 11.3001 6.99835C13.2321 6.99835 14.7975 8.5637 14.7975 10.4957C14.7984 12.4276 13.233 13.993 11.3001 13.993Z" fill="black"/>
<path d="M18.161 4.89489C18.161 5.59027 17.5973 6.15399 16.9019 6.15399C16.2065 6.15399 15.6427 5.59027 15.6427 4.89489C15.6427 4.1995 16.2065 3.63578 16.9019 3.63578C17.5973 3.63578 18.161 4.1995 18.161 4.89489Z" fill="black"/>
<path fill-rule="evenodd" clip-rule="evenodd" d="M15.6261 0.0659622C13.6941 -0.0241613 8.90871 -0.0197863 6.97496 0.0659622C5.27571 0.145586 3.77684 0.555954 2.56846 1.76431C0.761314 3.57142 0.777984 5.94046 0.801472 9.27831C0.804232 9.67054 0.807086 10.0761 0.807086 10.4958C0.807086 10.8885 0.804982 11.2681 0.802948 11.6352C0.783827 15.0852 0.770834 17.4297 2.56846 19.2273C4.37892 21.0369 6.77411 21.0191 10.0743 20.9946C10.4697 20.9916 10.8781 20.9886 11.3001 20.9886H11.3571C15.3592 20.9886 16.7493 20.9886 18.1732 20.4374C20.1183 19.6822 21.5866 17.9436 21.7301 14.8208C21.8211 12.888 21.8158 8.10357 21.7301 6.16986C21.5568 2.48355 19.5785 0.247959 15.6261 0.0659622ZM18.6842 17.8912C17.465 19.1104 15.8109 19.1065 12.2381 19.0983C11.9315 19.0976 11.6105 19.0969 11.2747 19.0969C11.0699 19.0969 10.8709 19.097 10.6773 19.0972L10.6737 19.0972C6.7355 19.1 5.08504 19.1012 3.86521 17.878C2.59616 16.615 2.61715 14.6934 2.64761 11.9045C2.65253 11.4533 2.65771 10.9793 2.65771 10.4818C2.65771 10.0599 2.65393 9.64825 2.65026 9.24819C2.61185 5.0644 2.58504 2.14424 7.01346 1.91743L7.06367 1.91566C8.13874 1.87766 8.49892 1.86493 11.2625 1.86493L11.3018 1.89118C11.7014 1.89118 12.0935 1.8876 12.4768 1.88409C16.5664 1.84671 19.6419 1.8186 19.8427 6.25385C19.8926 7.36071 19.904 7.6932 19.904 10.4949C19.9039 10.7468 19.9041 10.9901 19.9044 11.2251C19.908 15.0232 19.9095 16.6601 18.6842 17.8912Z" fill="black"/>
</svg>
