<svg width="151" height="39" viewBox="0 0 151 39" fill="none" xmlns="http://www.w3.org/2000/svg">
<path d="M22.6976 2.68706C23.3639 1.02649 25.4812 0.635656 26.7631 1.82239C27.5567 2.50804 27.7834 3.5733 27.3594 4.52448L12.2899 36.4091C11.5998 38.0144 9.57088 38.4017 8.2244 37.3278C7.37953 36.6058 7.3358 35.5845 7.73654 34.6257L11.4768 26.6816L1.0149 4.52448C0.544283 3.58611 0.867 2.4691 1.66538 1.82239C3.05166 0.699476 5.15571 0.932357 5.94772 2.63302L14.3498 21.2233L22.6976 2.68706Z" fill="#D29191"/>
<path d="M42.0871 28.3568C39.4852 28.3568 37.1904 27.7984 35.2029 26.6816C33.2514 25.5647 31.7336 23.9795 30.6495 21.9259C29.6015 19.8363 29.0775 17.4224 29.0775 14.6843C29.0775 11.9102 29.6015 9.49631 30.6495 7.44273C31.7336 5.35312 33.2514 3.74988 35.2029 2.63302C37.1904 1.51616 39.4852 0.95773 42.0871 0.95773C44.6891 0.95773 46.9657 1.51616 48.9172 2.63302C50.9048 3.74988 52.4226 5.35312 53.4706 7.44273C54.5547 9.49631 55.0968 11.9102 55.0968 14.6843C55.0968 17.4224 54.5547 19.8363 53.4706 21.9259C52.4226 23.9795 50.9048 25.5647 48.9172 26.6816C46.9657 27.7984 44.6891 28.3568 42.0871 28.3568ZM47.6162 21.6557C48.9172 20.0705 49.5677 17.7467 49.5677 14.6843C49.5677 11.658 48.9172 9.3522 47.6162 7.76698C44.978 4.47923 39.1963 4.47924 36.558 7.76698C35.2571 9.3522 34.6066 11.658 34.6066 14.6843C34.6066 17.7467 35.239 20.0705 36.5038 21.6557C39.1317 24.8577 45.0102 24.9218 47.6162 21.6557Z" fill="#D29191"/>
<path d="M82.0079 1.06581C82.8391 1.06581 83.4896 1.31801 83.9594 1.82239C84.4653 2.29076 84.7182 2.92124 84.7182 3.71385V25.8709C84.7182 29.906 83.6341 32.9504 81.4658 35.004C79.3337 37.0576 76.1716 38.0843 71.9796 38.0843C68.0768 38.0843 64.8243 37.3458 62.2224 35.8686C60.7869 35.0564 59.4283 33.2086 60.7046 31.6534C61.7111 30.5497 63.144 31.2906 64.2281 31.8696C66.6667 33.0176 69.1543 33.8151 71.8712 33.8151C76.8583 33.8151 79.3518 31.3111 79.3518 26.3033V22.1421C77.7092 25.5732 74.1323 27.1679 70.4619 27.1679C66.0531 27.1679 62.0753 24.9112 60.0541 20.9531C59.0784 18.9716 58.5906 16.6838 58.5906 14.0899C58.5906 11.4958 59.0965 9.20809 60.1084 7.22656C61.1202 5.24503 62.5115 3.71385 64.2823 2.63302C66.0892 1.51616 68.149 0.95773 70.4619 0.95773C74.0844 0.95773 77.6242 2.59305 79.2976 5.92956V3.65981C79.2976 2.06419 80.4448 1.06581 82.0079 1.06581ZM71.7628 22.8446C74.1118 22.8446 75.9548 22.07 77.2919 20.5208C78.629 18.9716 79.2976 16.828 79.2976 14.0899C79.2976 11.3878 78.629 9.26213 77.2919 7.71293C75.9909 6.12771 74.1479 5.3351 71.7628 5.3351C69.3777 5.3351 67.4986 6.1097 66.1253 7.65889C64.7882 9.20809 64.1197 11.3517 64.1197 14.0899C64.1197 16.828 64.8063 18.9716 66.1795 20.5208C67.5528 22.07 69.4139 22.8446 71.7628 22.8446Z" fill="#D29191"/>
<path d="M94.6299 28.2488C93.0396 28.2488 91.8653 27.2893 91.8653 25.6548V3.71385C91.8653 2.10416 93.0436 1.06581 94.6299 1.06581C96.2005 1.06581 97.3402 2.13259 97.3402 3.71385V25.6548C97.3402 27.2608 96.2047 28.2488 94.6299 28.2488Z" fill="#D29191"/>
<path d="M115.239 28.3568C110.52 28.3568 106.205 26.1708 103.964 21.9259C102.916 19.8723 102.392 17.4945 102.392 14.7924C102.392 12.0543 102.934 9.64042 104.018 7.55081C106.308 3.2789 110.727 0.95773 115.51 0.95773C118.228 0.95773 121.065 1.71838 123.37 3.17344C124.746 4.11658 125.76 5.97684 124.616 7.49677C123.611 8.72131 122.153 7.76306 121.147 7.11848C119.522 6.08184 117.788 5.3351 115.835 5.3351C113.378 5.3351 111.462 6.16374 110.089 7.82102C108.752 9.47829 108.083 11.7841 108.083 14.7384C108.083 17.6926 108.752 19.9804 110.089 21.6016C111.426 23.1869 113.323 23.9795 115.781 23.9795C117.78 23.9795 119.528 23.239 121.201 22.1961C122.228 21.5445 123.787 20.6795 124.725 21.9259C125.98 23.4559 124.754 25.2028 123.424 26.0871C121.048 27.6664 118.067 28.3568 115.239 28.3568Z" fill="#D29191"/>
<path d="M147.947 3.60577C149.682 5.37113 150.549 8.0552 150.549 11.658V25.6548C150.549 27.2677 149.483 28.2488 147.893 28.2488C146.365 28.2488 145.291 27.1849 145.291 25.6548V23.6552C143.88 26.7654 140.821 28.3568 137.485 28.3568C132.865 28.3568 128.107 25.3096 128.107 20.2506C128.032 16.1922 130.762 14.1031 134.504 13.3333C138.013 12.5557 141.659 12.5767 145.237 12.5767C145.237 10.5873 145.438 8.20177 143.99 6.6321C142.21 4.70344 138.678 5.10839 136.401 5.76743C135.281 6.09168 134.052 6.56005 132.715 7.17252C131.655 7.75973 130.297 8.48245 129.3 7.38869C128.648 6.59386 128.645 5.29358 129.246 4.47044C130.543 2.74538 133.239 2.0658 135.208 1.60623C139.297 0.565427 144.793 0.327425 147.947 3.60577ZM138.461 24.3037C140.448 24.3037 142.075 23.6372 143.339 22.3042C145.077 20.4232 145.237 18.0735 145.237 15.6571C142.745 15.6571 140.221 15.6258 137.756 16.0353C135.544 16.403 133.528 17.3636 133.528 19.8723C133.528 22.5855 135.896 24.3037 138.461 24.3037Z" fill="#D29191"/>
</svg>
