<svg width="15" height="15" viewBox="0 0 15 15" xmlns="http://www.w3.org/2000/svg">
<path d="M6.03702 4.84805L7.79639 1.16101L9.55575 4.84805C9.68696 5.12301 9.94835 5.31292 10.2504 5.35274L14.3007 5.88664L11.3377 8.69925C11.1168 8.909 11.0169 9.21629 11.0724 9.51585L11.8162 13.5329L8.2257 11.5841C7.95794 11.4388 7.63484 11.4388 7.36707 11.5841L3.77653 13.5329L4.52036 9.51585C4.57583 9.21629 4.47599 8.909 4.25503 8.69925L1.29212 5.88664L5.34238 5.35274C5.64442 5.31292 5.90582 5.12301 6.03702 4.84805ZM14.4526 5.74236L14.4524 5.74254L14.4526 5.74236ZM12.0004 13.6328L12.0002 13.6327L12.0004 13.6328ZM3.59234 13.6328C3.59241 13.6328 3.59247 13.6328 3.59254 13.6327L3.59234 13.6328Z"/>
</svg>
